<?xml version='1.0' encoding='utf-8'?>
<svg xmlns="http://www.w3.org/2000/svg" version="1.0" width="150.000000pt" height="150.000000pt" viewBox="0 0 150.000000 150.000000" preserveAspectRatio="xMidYMid meet">
<rect width="100%" height="100%" fill="#282a36" /><metadata>
Created by potrace 1.16, written by Peter Selinger 2001-2019
</metadata>
<g transform="translate(0.000000,150.000000) scale(0.100000,-0.100000)" stroke="none">
<path d="M145 1121 c-47 -20 -58 -46 -67 -164 -10 -128 -20 -160 -54 -175 -29 -14 -32 -48 -4 -57 36 -12 48 -46 55 -165 4 -63 13 -126 20 -140 17 -32 54 -50 105 -50 36 0 40 3 40 25 0 21 -5 25 -28 25 -52 0 -65 28 -72 153 -7 117 -17 149 -51 168 l-21 11 21 14 c36 25 45 55 51 168 5 98 8 110 29 127 13 11 34 19 47 19 19 0 24 5 24 25 0 22 -4 25 -37 24 -21 0 -47 -4 -58 -8z" fill="#bd93f9" />
<path d="M1260 1105 c0 -21 5 -25 28 -25 51 0 65 -28 72 -148 7 -111 16 -141 50 -165 20 -14 20 -14 -4 -31 -33 -21 -46 -72 -46 -179 0 -80 -2 -90 -25 -112 -13 -14 -36 -25 -50 -25 -20 0 -25 -5 -25 -25 0 -23 4 -25 40 -25 53 0 94 22 108 57 6 15 14 78 17 138 7 114 19 148 55 160 29 9 25 32 -14 68 -33 31 -34 35 -40 132 -10 137 -13 151 -48 180 -22 18 -41 25 -74 25 -40 0 -44 -2 -44 -25z" fill="#bd93f9" />
<path d="M472 922 c-37 -49 -41 -58 -28 -68 13 -9 5 -13 -39 -23 l-55 -12 -73 45 c-41 25 -79 46 -87 46 -13 0 -12 -9 16 -103 17 -57 17 -59 -5 -128 -12 -39 -20 -73 -17 -77 9 -9 64 21 126 67 33 25 65 41 82 41 29 0 47 -15 26 -22 -9 -3 -5 -20 16 -59 16 -30 33 -58 37 -63 6 -6 33 7 70 32 45 32 70 42 99 42 66 0 71 -5 54 -58 -7 -26 -14 -50 -14 -55 0 -11 57 20 115 63 45 33 58 38 135 44 97 8 262 32 333 47 51 12 66 39 22 39 -17 0 -25 6 -25 18 -1 15 -2 15 -16 -3 -12 -16 -18 -17 -33 -8 -13 8 -22 8 -29 1 -6 -6 -16 -8 -24 -6 -8 3 -1 11 19 21 24 13 33 14 36 4 4 -8 12 -4 25 12 12 15 25 22 36 18 10 -4 19 1 26 13 15 28 15 28 -47 40 -32 6 -94 20 -138 31 -57 14 -131 21 -260 25 l-180 6 -80 43 -80 43 -43 -56z m111 -12 c57 -33 48 -42 -11 -10 -54 28 -70 40 -54 40 7 0 36 -13 65 -30z m-43 -20 c19 -11 29 -19 22 -20 -14 0 -72 28 -72 35 0 9 15 4 50 -15z m-40 -20 c13 -8 13 -10 -2 -10 -9 0 -20 5 -23 10 -8 13 5 13 25 0z m-180 -72 c0 -4 -17 0 -37 8 -36 15 -63 39 -63 56 0 10 100 -54 100 -64z m635 33 l-30 -29 -285 -4 c-157 -3 -278 -3 -270 -1 8 2 74 17 145 33 113 25 152 28 300 29 l170 1 -30 -29z m154 5 c31 -8 73 -17 94 -20 20 -4 37 -10 37 -14 -1 -4 -37 -24 -80 -44 -44 -20 -80 -42 -80 -48 0 -6 28 -10 68 -11 52 -1 60 -3 37 -9 -16 -4 -50 -8 -76 -9 -39 -1 -50 4 -78 33 l-33 34 22 42 c27 53 6 49 -26 -6 l-24 -40 31 -37 c44 -53 13 -47 -41 8 l-44 45 44 45 c49 50 62 53 149 31z m-803 -67 c3 -5 -9 -9 -25 -9 -17 0 -31 2 -31 4 0 2 -3 11 -6 20 -5 13 -2 14 25 5 17 -6 34 -15 37 -20z m589 1 c-3 -5 -1 -18 4 -28 10 -18 6 -19 -64 -14 -78 5 -86 0 -61 -33 11 -16 32 -21 102 -26 62 -5 35 -6 -91 -5 -174 3 -182 4 -245 31 -39 18 -91 31 -130 35 -51 4 -66 9 -68 22 -3 15 9 18 115 21 294 7 444 7 438 -3z m-618 -46 c-30 -16 -44 -14 -32 5 3 6 18 11 33 11 l27 -1 -28 -15z m17 -35 c-47 -37 -74 -53 -74 -42 0 16 16 31 55 51 57 30 64 27 19 -9z m645 5 c8 -8 -95 -2 -119 6 -15 5 2 6 45 3 39 -3 72 -7 74 -9z m-465 -18 c-10 -8 -21 -12 -24 -10 -5 6 21 24 34 24 6 0 1 -6 -10 -14z m32 -27 c-14 -11 -32 -19 -39 -16 -6 2 1 11 18 20 42 23 53 21 21 -4z m51 -6 c-20 -23 -77 -57 -77 -46 0 7 79 62 89 63 2 0 -3 -8 -12 -17z m243 -17 c0 -2 -18 -15 -40 -30 -43 -28 -54 -20 -18 14 18 17 58 28 58 16z" fill="#50fa7b" />
<path d="M1100 813 c0 -5 6 -17 13 -27 12 -16 14 -16 26 -2 16 19 14 21 -16 30 -13 4 -23 3 -23 -1z" fill="#50fa7b" />
</g>
<text x="75" y="105" text-anchor="middle" font-family="'Courier New', 'Fira Code', 'JetBrains Mono', monospace" font-size="7" font-weight="bold" letter-spacing="0.3" fill="#f8f8f2">THE OUTDOOR PROGRAMMER</text>
</svg>